<?xml version="1.0" encoding="utf-8"?>
<!-- Generator: Adobe Illustrator 17.0.0, SVG Export Plug-In . SVG Version: 6.00 Build 0)  -->
<!DOCTYPE svg PUBLIC "-//W3C//DTD SVG 1.1//EN" "http://www.w3.org/Graphics/SVG/1.1/DTD/svg11.dtd">
<svg version="1.1" id="Layer_1" xmlns="http://www.w3.org/2000/svg" xmlns:xlink="http://www.w3.org/1999/xlink" x="0px" y="0px"
	 width="1275.59px" height="425.2px" viewBox="0 0 1275.59 425.2" enable-background="new 0 0 1275.59 425.2" xml:space="preserve">
<g>
	<polygon points="0,0.002 0,0.002 0,0.002 0,113.387 34.866,113.387 34.866,32.6 620.362,32.6 620.362,70.868 655.228,70.868 
		655.228,32.6 1240.724,32.6 1240.724,113.387 1275.591,113.387 1275.591,0.002 1275.591,0.002 	"/>
	<polygon points="1240.724,392.6 655.228,392.6 655.228,354.332 620.362,354.332 620.362,392.6 34.866,392.6 34.866,311.813 
		0,311.813 0,425.198 1275.591,425.198 1275.591,311.813 1240.724,311.813 	"/>
	<polygon points="278.538,312.379 278.538,113.954 245.656,113.954 181.027,206.647 113.279,113.954 78.129,113.954 78.129,312.379 
		112.995,312.379 112.995,169.797 176.208,257.104 181.31,257.104 243.956,168.946 243.956,312.379 	"/>
	<path d="M441.215,261.639l20.693,50.74h37.134l-83.905-198.992h-30.614l-83.905,198.992h35.15l20.693-50.74H441.215z
		 M398.978,158.458l28.913,70.583h-58.11L398.978,158.458z"/>
	<polygon points="662.996,312.379 690.776,312.379 690.776,113.954 658.177,113.954 658.177,252.001 549.044,113.954 
		521.264,113.954 521.264,312.379 553.862,312.379 553.862,174.899 	"/>
	<polygon points="851.215,146.553 851.215,113.954 736.411,113.954 736.411,312.379 854.049,312.379 854.049,279.781 
		771.278,279.781 771.278,228.474 842.711,228.474 842.711,195.876 771.278,195.876 771.278,146.553 	"/>
	<path d="M977.696,143.434c17.291,0,34.866,5.953,44.787,15.307l14.74-27.779c-16.157-12.756-35.433-20.126-63.779-20.126
		c-60.661,0-98.929,45.354-98.929,102.331c0,61.795,38.551,102.331,103.465,102.331c24.661,0,56.693-10.205,74.268-27.78v-82.205
		h-80.504v32.598h47.906v31.181c-7.37,7.087-25.795,13.606-41.102,13.606c-40.252,0-67.181-27.496-67.181-69.732
		C911.365,168.946,939.428,143.434,977.696,143.434z"/>
	<polygon points="1204.266,146.553 1204.266,113.954 1089.463,113.954 1089.463,312.379 1207.1,312.379 1207.1,279.781 
		1124.329,279.781 1124.329,228.474 1195.762,228.474 1195.762,195.876 1124.329,195.876 1124.329,146.553 	"/>
</g>
</svg>
