<?xml version="1.0" encoding="utf-8"?>
<!-- Generator: Adobe Illustrator 17.0.0, SVG Export Plug-In . SVG Version: 6.00 Build 0)  -->
<!DOCTYPE svg PUBLIC "-//W3C//DTD SVG 1.1//EN" "http://www.w3.org/Graphics/SVG/1.1/DTD/svg11.dtd">
<svg version="1.1" id="Layer_1" xmlns="http://www.w3.org/2000/svg" xmlns:xlink="http://www.w3.org/1999/xlink" x="0px" y="0px"
	 width="1275.59px" height="425.2px" viewBox="0 0 1275.59 425.2" enable-background="new 0 0 1275.59 425.2" xml:space="preserve">
<g>
	<polygon points="0,0.002 0,0.002 0,0.002 0,113.387 34.866,113.387 34.866,32.6 620.362,32.6 620.362,70.868 655.228,70.868 
		655.228,32.6 1240.724,32.6 1240.724,113.387 1275.59,113.387 1275.59,0.002 1275.59,0.002 	"/>
	<polygon points="1240.724,392.6 655.228,392.6 655.228,354.332 620.362,354.332 620.362,392.6 34.866,392.6 34.866,311.813 
		0,311.813 0,425.198 0,425.198 1275.59,425.198 1275.59,311.813 1240.724,311.813 	"/>
	<polygon points="314.476,312.379 314.476,113.954 281.594,113.954 216.964,206.647 149.216,113.954 114.066,113.954 
		114.066,312.379 148.932,312.379 148.932,169.797 212.145,257.104 217.247,257.104 279.893,168.946 279.893,312.379 	"/>
	<path d="M477.152,261.639l20.693,50.74h37.134l-83.905-198.992h-30.614l-83.905,198.992h35.15l20.693-50.74H477.152z
		 M434.916,158.458l28.913,70.583h-58.11L434.916,158.458z"/>
	<polygon points="557.201,113.954 557.201,312.379 592.067,312.379 592.067,227.624 682.776,227.624 682.776,312.379 
		717.358,312.379 717.358,113.954 682.776,113.954 682.776,195.025 592.067,195.025 592.067,113.954 	"/>
	<polygon points="873.119,146.553 873.119,113.954 758.315,113.954 758.315,312.379 875.953,312.379 875.953,279.781 
		793.182,279.781 793.182,228.474 864.615,228.474 864.615,195.876 793.182,195.876 793.182,146.553 	"/>
	<polygon points="933.751,312.379 1008.869,209.482 1008.869,312.379 1043.452,312.379 1043.452,209.482 1118.286,312.379 
		1158.538,312.379 1080.869,208.631 1155.42,113.954 1115.168,113.954 1043.452,208.631 1043.452,113.954 1008.869,113.954 
		1008.869,208.631 936.869,113.954 896.901,113.954 971.452,208.915 893.782,312.379 	"/>
</g>
</svg>
